<?xml version="1.0" encoding="iso-8859-1"?>
<!-- Generator: Adobe Illustrator 19.0.0, SVG Export Plug-In . SVG Version: 6.00 Build 0)  -->
<svg version="1.1" id="Layer_1" xmlns="http://www.w3.org/2000/svg" xmlns:xlink="http://www.w3.org/1999/xlink" x="0px" y="0px"
	 viewBox="0 0 297 297" style="enable-background:new 0 0 297 297;" xml:space="preserve">
<g>
	<g>
		<g>
			<path d="M191.99,145.671V8.486c0-4.686-3.8-8.486-8.486-8.486h-70.007c-4.686,0-8.486,3.8-8.486,8.486v137.185L69.874,192.52
				h157.252L191.99,145.671z"/>
			<path d="M273.919,254.911l-34.065-45.42H57.146l-34.065,45.42c-6.016,8.023-6.968,18.578-2.484,27.547
				c4.485,8.97,13.5,14.542,23.529,14.542h208.747c10.029,0,19.044-5.572,23.529-14.541
				C280.887,273.489,279.935,262.934,273.919,254.911z M101.995,259.515c-1.581,1.58-3.766,2.482-6.004,2.482
				c-2.228,0-4.423-0.902-6.004-2.482c-1.57-1.581-2.482-3.766-2.482-6.004c0-2.228,0.912-4.423,2.482-6.004
				c1.581-1.581,3.776-2.482,6.004-2.482c2.237,0,4.423,0.901,6.004,2.482c1.58,1.581,2.482,3.776,2.482,6.004
				C104.477,255.748,103.575,257.934,101.995,259.515z M136.999,242.001c-1.581,1.581-3.766,2.493-6.004,2.493
				c-2.228,0-4.423-0.913-5.993-2.493c-1.581-1.569-2.492-3.755-2.492-5.992c0-2.238,0.912-4.423,2.492-6.004
				c1.57-1.581,3.765-2.482,5.993-2.482c2.237,0,4.423,0.901,6.004,2.482c1.58,1.581,2.482,3.776,2.482,6.004
				C139.481,238.236,138.579,240.432,136.999,242.001z M189.504,259.503c-1.581,1.591-3.766,2.493-6.004,2.493
				c-2.228,0-4.413-0.902-5.993-2.493c-1.581-1.569-2.492-3.755-2.492-5.992c0-2.238,0.912-4.423,2.492-6.004
				c1.57-1.581,3.765-2.482,5.993-2.482c2.237,0,4.423,0.901,6.004,2.482c1.58,1.581,2.482,3.776,2.482,6.004
				C191.986,255.748,191.084,257.934,189.504,259.503z M224.508,242.013c-1.581,1.58-3.766,2.482-6.004,2.482
				c-2.228,0-4.413-0.902-5.993-2.482c-1.581-1.581-2.492-3.766-2.492-6.004c0-2.238,0.912-4.423,2.492-6.004
				c1.57-1.581,3.765-2.482,5.993-2.482c2.237,0,4.423,0.901,6.004,2.482c1.58,1.581,2.482,3.765,2.482,6.004
				C226.99,238.246,226.088,240.432,224.508,242.013z"/>
		</g>
	</g>
</g>
<g>
</g>
<g>
</g>
<g>
</g>
<g>
</g>
<g>
</g>
<g>
</g>
<g>
</g>
<g>
</g>
<g>
</g>
<g>
</g>
<g>
</g>
<g>
</g>
<g>
</g>
<g>
</g>
<g>
</g>
</svg>
