<?xml version="1.0" encoding="utf-8"?>
<!-- Generator: Adobe Illustrator 25.4.1, SVG Export Plug-In . SVG Version: 6.00 Build 0)  -->
<svg version="1.1" id="Isolation_Mode" xmlns="http://www.w3.org/2000/svg" xmlns:xlink="http://www.w3.org/1999/xlink" x="0px"
	 y="0px" viewBox="0 0 66.3 74.9" style="enable-background:new 0 0 66.3 74.9;" xml:space="preserve">
<style type="text/css">
	.st0{fill:#378DF4;}
	.st1{fill:#005ADD;}
	.st2{opacity:0.25;clip-path:url(#SVGID_00000116937826145389529480000017806604329865219713_);}
	.st3{opacity:0.25;clip-path:url(#SVGID_00000019655657088682489780000004943704550929016208_);}
	.st4{fill:#0066FF;}
	.st5{fill:#73B9FF;}
	.st6{opacity:0.25;clip-path:url(#SVGID_00000073711410485465188170000003368911773161946037_);}
</style>
<g>
	<path class="st0" d="M5.3,44.7c-1.7,0.8-2.9,1.7-3.6,2.7c0,0,0,0,0,0c-0.5,0.8-0.2,1.9,0.7,2.3c2.3,1,5,2.1,8,3.4l23.2-10.1
		l-12-5.3L5.3,44.7z"/>
	<g>
		<path class="st1" d="M31.7,0.6L4.5,12.8c-1.7,0.7-2.9,1.6-3.5,2.5c0,0,0,0,0,0c-0.6,0.9-0.2,2.2,0.8,2.7l8,3.5
			c0,0,10.7-4,23.8-9.4c1.3-0.5,1.9-1.3,1.9-2.6c0-3.7-0.1-6.3-0.3-7.9C35.1,0.6,34.6,0,33.6,0C33.2,0,32.5,0.2,31.7,0.6z"/>
	</g>
	<g>
		<path class="st1" d="M56.5,53.1c0,0-9.6,4.2-22.8,9.6c-1.3,0.5-1.9,1.3-1.9,2.6c0,3.7,0.1,6.3,0.3,7.9c0.1,1.2,0.7,1.8,1.6,1.8
			c0.5,0,1.1-0.2,2-0.6l26.1-12.5c1.7-0.7,2.9-1.6,3.5-2.5c0,0,0,0,0,0c0.6-0.9,0.2-2.2-0.8-2.7L56.5,53.1z"/>
	</g>
	<g>
		<defs>
			<path id="SVGID_1_" d="M31.7,0.6L4.5,12.8c-1.7,0.7-2.9,1.6-3.5,2.5c0,0,0,0,0,0c-0.6,0.9-0.2,2.2,0.8,2.7l8,3.5
				c0,0,10.7-4,23.8-9.4c1.3-0.5,1.9-1.3,1.9-2.6c0-3.7-0.1-6.3-0.3-7.9C35.1,0.6,34.6,0,33.6,0C33.2,0,32.5,0.2,31.7,0.6z"/>
		</defs>
		<clipPath id="SVGID_00000134940936833639025730000018103730877052361861_">
			<use xlink:href="#SVGID_1_"  style="overflow:visible;"/>
		</clipPath>
		<g style="opacity:0.25;clip-path:url(#SVGID_00000134940936833639025730000018103730877052361861_);">
			
				<image style="overflow:visible;" width="577" height="484" xlink:href="359A35F0.png"  transform="matrix(0.24 0 0 0.24 -36.1741 -20.8183)">
			</image>
		</g>
	</g>
	<g>
		<defs>
			<path id="SVGID_00000068646041393805557910000007379665301026713986_" d="M56.5,53.1c0,0-9.6,4.2-22.8,9.6
				c-1.3,0.5-1.9,1.3-1.9,2.6c0,3.7,0.1,6.3,0.3,7.9c0.1,1.2,0.7,1.8,1.6,1.8c0.5,0,1.1-0.2,2-0.6l26.1-12.5
				c1.7-0.7,2.9-1.6,3.5-2.5c0,0,0,0,0,0c0.6-0.9,0.2-2.2-0.8-2.7L56.5,53.1z"/>
		</defs>
		<clipPath id="SVGID_00000112620607922031843110000013329946639911869360_">
			<use xlink:href="#SVGID_00000068646041393805557910000007379665301026713986_"  style="overflow:visible;"/>
		</clipPath>
		<g style="opacity:0.25;clip-path:url(#SVGID_00000112620607922031843110000013329946639911869360_);">
			
				<image style="overflow:visible;" width="577" height="484" xlink:href="359A35F1.png"  transform="matrix(0.24 0 0 0.24 -36.1741 -20.8183)">
			</image>
		</g>
	</g>
	<g>
		<path class="st4" d="M65.2,47.4c-0.7-1-1.9-1.9-3.6-2.7L9.8,21.6c0,0,0,0,0,0l-8-3.5c-1-0.5-1.5-1.7-0.8-2.7c-0.7,1-1,2.5-1,4.6
			v2.7c0,2,0.3,3.5,1,4.6c0.7,1,1.9,1.9,3.6,2.7l51.9,23.1l8,3.5c1,0.5,1.5,1.7,0.8,2.7c0.7-1,1-2.5,1-4.6V52
			C66.3,50,65.9,48.4,65.2,47.4z"/>
	</g>
	<path class="st5" d="M33.7,62.7C33.7,62.7,33.7,62.7,33.7,62.7c-13.2-5.4-23.2-9.6-23.2-9.6l0,0c-3-1.3-5.7-2.4-8-3.4
		c-0.9-0.4-1.3-1.5-0.7-2.3c-0.7,1-1,2.5-1,4.5v2.7c0,2.1,0.3,3.7,1,4.6c0.7,1,1.9,1.8,3.5,2.5l26.5,12.5c0.6,0.3,1.2,0.5,1.6,0.6
		c-0.7-0.1-1.1-0.7-1.2-1.7c-0.2-1.5-0.3-4.1-0.3-7.9C31.8,64,32.4,63.1,33.7,62.7z"/>
	<g>
		<defs>
			<path id="SVGID_00000170258072934221396410000003417676876355430565_" d="M5.3,44.7c-1.7,0.8-2.9,1.7-3.6,2.7c0,0,0,0,0,0
				c-0.5,0.8-0.2,1.9,0.7,2.3c2.3,1,5,2.1,8,3.4l23.2-10.1l-12-5.3L5.3,44.7z"/>
		</defs>
		<clipPath id="SVGID_00000152249517270012999540000012667829642480436383_">
			<use xlink:href="#SVGID_00000170258072934221396410000003417676876355430565_"  style="overflow:visible;"/>
		</clipPath>
		<g style="opacity:0.25;clip-path:url(#SVGID_00000152249517270012999540000012667829642480436383_);">
			
				<image style="overflow:visible;" width="436" height="414" xlink:href="359A35F7.png"  transform="matrix(0.24 0 0 0.24 -35.4541 11.3417)">
			</image>
		</g>
		<g style="opacity:0.25;clip-path:url(#SVGID_00000152249517270012999540000012667829642480436383_);">
			
				<image style="overflow:visible;" width="577" height="484" xlink:href="359A35F2.png"  transform="matrix(0.24 0 0 0.24 -36.1741 -20.8183)">
			</image>
		</g>
	</g>
</g>
</svg>
